<?xml version="1.0" encoding="iso-8859-1"?>
<!-- Uploaded to: SVG Repo, www.svgrepo.com, Generator: SVG Repo Mixer Tools -->
<svg height="800px" width="800px" version="1.1" id="Layer_1" xmlns="http://www.w3.org/2000/svg" xmlns:xlink="http://www.w3.org/1999/xlink"
	 viewBox="0 0 511.999 511.999" xml:space="preserve">
<path style="fill:#C7CFE2;" d="M213.243,401.37v51.307c0,9.445,7.658,17.102,17.102,17.102h51.307
	c9.445,0,17.102-7.658,17.102-17.102V401.37H213.243z"/>
<path style="fill:#AFB9D2;" d="M247.447,401.37h-34.204v51.307c0,9.445,7.658,17.102,17.102,17.102h34.204
	c-9.445,0-17.102-7.658-17.102-17.102V401.37z"/>
<path style="fill:#959CB5;" d="M238.896,469.779v17.102c0,9.445,7.658,17.102,17.102,17.102s17.102-7.658,17.102-17.102v-17.102
	H238.896z"/>
<path style="fill:#FFF082;" d="M427.02,179.042c0-97.508-81.603-175.957-180.242-170.779
	c-88.466,4.643-160.002,78.719-161.766,167.29c-1.436,72.031,41.682,134.154,103.661,160.724c9.599,4.115,16.02,13.301,16.02,23.744
	v24.247c0,9.446,7.656,17.102,17.102,17.102h68.409c9.446,0,17.102-7.656,17.102-17.102v-24.24c0-10.454,6.438-19.641,16.046-23.761
	C384.313,310.119,427.02,249.575,427.02,179.042z"/>
<circle style="fill:#FFF8C1;" cx="255.997" cy="179.039" r="136.818"/>
<circle style="fill:#FFFCE6;" cx="255.997" cy="179.039" r="94.062"/>
<g>
	<path style="fill:#9BF57D;" d="M366.118,125.236c0.581-2.991-2.017-5.59-5.008-5.008c-13.716,2.668-47.514,10.981-67.413,30.879
		c-14.031,14.031-16.106,34.705-4.634,46.176c11.471,11.471,32.145,9.397,46.176-4.634
		C355.139,172.75,363.45,138.952,366.118,125.236z"/>
	<path style="fill:#9BF57D;" d="M145.88,176.543c-0.581-2.991,2.017-5.59,5.008-5.008c13.716,2.668,47.514,10.981,67.413,30.879
		c14.031,14.031,16.106,34.705,4.634,46.176c-11.471,11.471-32.145,9.397-46.176-4.634
		C156.859,224.057,148.548,190.259,145.88,176.543z"/>
</g>
<g>
	<path style="fill:#8CE16E;" d="M176.759,243.956c14.03,14.03,34.705,16.105,46.176,4.634l-75.891-75.891
		c-0.951,0.951-1.455,2.348-1.164,3.844C148.548,190.259,156.859,224.057,176.759,243.956z"/>
	<path style="fill:#8CE16E;" d="M361.111,120.228c-13.716,2.668-47.514,10.98-67.413,30.879
		c-14.03,14.03-16.105,34.705-4.634,46.176l75.891-75.891C364.003,120.442,362.606,119.937,361.111,120.228z"/>
</g>
<path style="fill:#FFDC64;" d="M281.652,401.37l-7.36-44.161c-0.687-4.124-4.254-7.146-8.435-7.146H246.14
	c-4.18,0-7.747,3.022-8.435,7.146l-7.36,44.161"/>
<path d="M379.215,49.147C343.24,15.01,296.05-2.353,246.358,0.257c-44.808,2.352-86.977,21.744-118.741,54.606
	c-31.749,32.847-49.727,75.652-50.62,120.53c-0.726,36.442,9.43,71.705,29.371,101.979c19.418,29.483,46.787,52.4,79.146,66.272
	c6.781,2.907,11.162,9.335,11.162,16.376v24.247c0,7.507,3.315,14.25,8.551,18.857v49.551c0,13.851,11.268,25.119,25.119,25.119
	h0.534v9.086c0,13.851,11.268,25.119,25.119,25.119c13.851,0,25.119-11.268,25.119-25.119v-9.086h0.534
	c13.851,0,25.119-11.268,25.119-25.119v-25.581c0-0.02,0-0.041,0-0.06v-23.91c5.236-4.607,8.551-11.35,8.551-18.857v-24.24
	c0-7.044,4.392-13.479,11.189-16.395c65.928-28.276,108.526-92.882,108.526-164.591C435.037,129.436,415.212,83.305,379.215,49.147z
	 M265.084,486.881c0,5.01-4.076,9.086-9.086,9.086s-9.086-4.076-9.086-9.086v-9.086h18.171V486.881z M290.737,452.677
	c0,5.01-4.076,9.086-9.086,9.086h-51.307c-5.01,0-9.086-4.076-9.086-9.086v-1.979l69.478-13.896V452.677z M221.26,434.346v-24.96
	h69.478v11.065L221.26,434.346z M221.26,408.414v-0.012C221.271,408.401,221.27,408.406,221.26,408.414z M239.809,393.354
	l5.804-34.826c0.044-0.259,0.265-0.447,0.527-0.447h19.717c0.263,0,0.484,0.188,0.527,0.447l5.804,34.826H239.809z M320.192,328.898
	c-12.697,5.446-20.902,17.665-20.902,31.129v24.24c0,5.01-4.076,9.086-9.086,9.086h-1.759l-6.243-37.462
	c-1.337-8.022-8.21-13.844-16.342-13.844h-1.842v-90.447c0-11.563,4.503-22.435,12.679-30.611l13.093-13.093
	c5.403,3.188,11.646,4.764,18.122,4.764c11.407,0,23.528-4.872,32.999-14.342c27.007-27.007,33.918-75.985,34.199-78.057
	c0.336-2.481-0.506-4.976-2.276-6.746s-4.265-2.611-6.746-2.276c-2.071,0.281-51.051,7.193-78.057,34.199
	c-14.847,14.847-18.381,36.197-9.576,51.117L265.36,209.65c-11.205,11.205-17.376,26.102-17.376,41.948v10.701l-14.437-14.437
	c8.804-14.922,5.271-36.271-9.576-51.117c-27.007-27.007-75.985-33.918-78.057-34.199c-2.478-0.337-4.976,0.505-6.746,2.276
	c-1.77,1.77-2.611,4.265-2.276,6.746c0.281,2.072,7.193,51.05,34.199,78.057c9.471,9.471,21.59,14.342,32.999,14.342
	c6.475,0,12.718-1.577,18.121-4.764l25.773,25.773v57.072h-1.842c-8.132,0-15.005,5.822-16.342,13.844l-6.243,37.462h-1.759
	c-5.01,0-9.086-4.076-9.086-9.086v-24.247c0-13.463-8.195-25.676-20.879-31.112c-29.464-12.631-54.387-33.502-72.074-60.356
	c-18.149-27.554-27.391-59.658-26.73-92.84c0.81-40.82,17.19-79.781,46.117-109.707c28.935-29.935,67.309-47.6,108.053-49.737
	c2.973-0.156,5.936-0.234,8.886-0.234c41.976,0,81.494,15.706,112.095,44.744c32.774,31.099,50.825,73.1,50.825,118.264
	C419.004,244.33,380.218,303.152,320.192,328.898z M330.077,156.271c-3.131-3.131-8.207-3.131-11.337,0l-28.227,28.227
	c-2.59-8.462,0.591-19.459,8.855-27.723c16.029-16.028,42.665-24.045,57.686-27.481c-3.436,15.021-11.453,41.658-27.481,57.686
	c-8.264,8.264-19.26,11.445-27.723,8.855l28.227-28.227C333.207,164.477,333.207,159.402,330.077,156.271z M181.921,218.914
	l28.227,28.227c-8.462,2.59-19.459-0.591-27.723-8.855c-16.028-16.029-24.045-42.665-27.481-57.686
	c15.021,3.436,41.658,11.453,57.686,27.481c8.264,8.264,11.445,19.26,8.855,27.723l-28.226-28.227
	c-3.131-3.131-8.207-3.131-11.337,0C178.791,210.709,178.791,215.784,181.921,218.914z"/>
</svg>
