<svg id="Layer_1" data-name="Layer 1" xmlns="http://www.w3.org/2000/svg" viewBox="0 0 122.88 122.88"><defs><style>.cls-1{fill:#00a912;}.cls-1,.cls-2{fill-rule:evenodd;}.cls-2{fill:#fff;}</style></defs><title>confirm</title><path class="cls-1" d="M61.44,0A61.44,61.44,0,1,1,0,61.44,61.44,61.44,0,0,1,61.44,0Z"/><path class="cls-2" d="M42.37,51.68,53.26,62,79,35.87c2.13-2.16,3.47-3.9,6.1-1.19l8.53,8.74c2.8,2.77,2.66,4.4,0,7L58.14,85.34c-5.58,5.46-4.61,5.79-10.26.19L28,65.77c-1.18-1.28-1.05-2.57.24-3.84l9.9-10.27c1.5-1.58,2.7-1.44,4.22,0Z"/></svg>
