<svg
   width="800px"
   height="800px"
   viewBox="0 0 24 24"
   fill="none"
   version="1.1"
   xmlns="http://www.w3.org/2000/svg"
   xmlns:svg="http://www.w3.org/2000/svg">
  <path
     d="m 19.402765,19.007843 c 1.380497,-1.679442 2.307667,-4.013099 2.307667,-6.330999 C 21.710432,7.2551476 17.193958,2.86 11.622674,2.86 6.0513555,2.86 1.5349153,7.2551476 1.5349153,12.676844 c 0,5.421663 4.5164402,9.816844 10.0877587,9.816844 2.381867,0 4.570922,-0.803307 6.296712,-2.14673 z m -7.780091,1.925408 c -4.3394583,0 -8.6708434,-4.033489 -8.6708434,-8.256407 0,-4.2229187 4.3313851,-8.2564401 8.6708434,-8.2564401 4.339458,0 8.670809,4.2369112 8.670809,8.4598301 0,4.222918 -4.331351,8.053017 -8.670809,8.053017 z"
     fill="#1c274c"
     fill-rule="evenodd"
     clip-rule="evenodd"
     fill-opacity="1"
     stroke-width="1.10519"
     stroke-dasharray="none" />
  <path
     d="m 14.177351,11.200265 0.05184,2.153289"
     stroke="#1c274c"
     stroke-width="1.95702"
     stroke-linecap="round" />
  <path
     d="m 9.271347,11.140946 0.051844,2.153289"
     stroke="#1c274c"
     stroke-width="1.95701"
     stroke-linecap="round" />
  <path
     d="m 13.557051,1.4687179 c -1.779392,0.00605 -3.082184,0.01209 -3.6968064,0.018135"
     stroke="#1c274c"
     stroke-width="1.77333"
     stroke-linecap="round" />
  <path
     d="M 20.342466,5.7144363 19.140447,6.8696139"
     stroke="#1c274c"
     stroke-width="1.95701"
     stroke-linecap="round" />
</svg>
