<?xml version="1.0" encoding="utf-8"?><!-- Uploaded to: SVG Repo, www.svgrepo.com, Generator: SVG Repo Mixer Tools -->
<svg width="800px" height="800px" viewBox="-0.5 0 25 25" fill="none" xmlns="http://www.w3.org/2000/svg">
<path d="M6.75 15C8.13071 15 9.25 13.8807 9.25 12.5C9.25 11.1193 8.13071 10 6.75 10C5.36929 10 4.25 11.1193 4.25 12.5C4.25 13.8807 5.36929 15 6.75 15Z" stroke="#0F0F0F" stroke-miterlimit="10" stroke-linecap="round" stroke-linejoin="round"/>
<path d="M17.25 8C18.6307 8 19.75 6.88071 19.75 5.5C19.75 4.11929 18.6307 3 17.25 3C15.8693 3 14.75 4.11929 14.75 5.5C14.75 6.88071 15.8693 8 17.25 8Z" stroke="#0F0F0F" stroke-miterlimit="10" stroke-linecap="round" stroke-linejoin="round"/>
<path d="M17.25 22C18.6307 22 19.75 20.8807 19.75 19.5C19.75 18.1193 18.6307 17 17.25 17C15.8693 17 14.75 18.1193 14.75 19.5C14.75 20.8807 15.8693 22 17.25 22Z" stroke="#0F0F0F" stroke-miterlimit="10" stroke-linecap="round" stroke-linejoin="round"/>
<path d="M13.49 17.05L10.45 15.06" stroke="#0F0F0F" stroke-miterlimit="10" stroke-linecap="round" stroke-linejoin="round"/>
<path d="M13.48 7.96001L10.46 9.94001" stroke="#0F0F0F" stroke-miterlimit="10" stroke-linecap="round" stroke-linejoin="round"/>
</svg>
