<?xml version="1.0" encoding="utf-8"?>
<!-- Uploaded to: SVG Repo, www.svgrepo.com, Generator: SVG Repo Mixer Tools -->
<svg fill="#000000" width="800px" height="800px" viewBox="-7.5 0 32 32" version="1.1" xmlns="http://www.w3.org/2000/svg">
<title>thumbs-up</title>
<path d="M12.040 25.24v0c-3.36 0-7.96-1.24-8.16-1.32-0.36-0.080-0.6-0.44-0.6-0.8v-14.96c0-0.32 0.16-0.6 0.44-0.76 0.84-0.44 1.56-0.64 2.2-0.64 2.32 0 2.68 2.48 2.92 4.28 0.080 0.72 0.24 1.92 0.52 2.12s1.28 0.28 2 0.36c1.52 0.16 3.080 0.32 3.84 1.2 0.92 1.040 1.8 4.52 1.44 6.96-0.2 1.4-0.76 2.36-1.6 2.92-0.68 0.44-1.68 0.64-3 0.64zM4.92 22.48c1.36 0.32 4.64 1.080 7.12 1.080 1.32 0 1.92-0.24 2.12-0.36 0.52-0.32 0.76-1.12 0.84-1.72 0.32-2.24-0.56-5.080-1.040-5.6-0.36-0.4-1.84-0.56-2.8-0.68-1.16-0.12-2.12-0.24-2.76-0.64-0.88-0.6-1.080-1.92-1.24-3.28-0.28-1.96-0.52-2.84-1.24-2.84-0.2 0-0.52 0.040-1 0.24 0 0 0 13.8 0 13.8zM0.84 23.96c-0.48 0-0.84-0.36-0.84-0.84v-8.92c0-0.48 0.36-0.84 0.84-0.84s0.84 0.36 0.84 0.84v8.96c0 0.44-0.36 0.8-0.84 0.8z"></path>
</svg>
