<svg id="Layer_1" data-name="Layer 1" xmlns="http://www.w3.org/2000/svg" viewBox="0 0 942.19 656.92"><defs><style>.cls-1{fill:#1e1d1e;}</style></defs><title>logotype</title><path class="cls-1" d="M122.48,234.63c7.25,7.25,3.29,38.21,3.29,57.32,0,11.86,2,21.74,2,31,0,9.88-2,19.76-2,29,2,7.9,0,36.89,4,38.87,5.93,4,11.86-15.81,13.83-17.79,5.93-13.18,2-5.27,9.23-21.08,7.9-15.16,15.81-31,21.74-42.17,5.27-11.86,13.18-29,19.11-42.83,5.93-9.22,9.88-27,19.11-34.26,5.92-5.93,25-5.93,42.82-5.93,13.18,2,27,2,31,9.22,5.27,11.86-15.82,42.83-21.74,56-7.25,15.81-13.18,25.7-21.09,38.87-2,4-2,7.91-4,13.84-7.25,19.11-17.13,32.28-27,52-4,7.25-7.25,17.13-13.18,25-4,11.2-9.89,21.08-9.89,29,0,11.2,7.91,27,11.86,34.26,13.18,25.7,27,50.73,40.19,77.75,2,5.27,2,11.2,5.93,17.13,5.93,15.15,13.84,27,23.06,46.12,5.94,13.84,21.09,38.87,17.79,50.07-5.93,13.84-21.74,9.88-38.87,9.88-21.08,0-36.89,0-44.14-4-7.91-5.93-13.84-27-19.77-38.21-13.18-31-19.11-48.76-34.26-81a152.72,152.72,0,0,0-15.81-33c-7.91-9.88-7.91,21.09-9.89,34.92v38.22c0,25,5.93,67.86-5.27,79.06-11.86,9.89-67.86,7.91-75.77-5.93-2-7.24,0-30.31,0-50.07,2-19.11,0-31,0-48.1-2-42.17-2-81-2-123.21,0-15.81,4-31,2-42.83,0-7.9-2-13.17-2-21.08,0-5.93,2-9.88,2-15.81,0-13.18-2-27-2-40.19,0-13.84,2-27,2-38.88,0-17.13-5.27-38.21-2-52,2-5.93,7.91-11.2,9.89-13.18,2,0,2,0,4-2C71.74,222.77,114.57,224.74,122.48,234.63Z" transform="translate(-41.67 -218.04)"/><path class="cls-1" d="M547.58,232.65c3.95,2,3.95,9.23,5.93,17.13,2,15.16,0,46.12,0,63.91-2,29,0,59.3,0,81V523.87c0,34.92,0,83-2,123.87,0,17.13,2,30.31-5.93,36.24-9.22,5.93-63.91,5.93-71.16,0-7.9-7.91-3.95-33-3.95-50.08V610.84c0-36.89-2-71.81,0-114,0-9.88,2-21.08,0-25-5.93-5.93-21.08-2-32.94-2-7.91,0-25-5.93-32.95,2-7.25,9.88-4,36.9-4,54,0,42.17,2,63.91,2,108,0,23.07,2,42.17-9.23,50.08-11.86,7.91-58,5.93-65.89-2-11.86-11.2-9.88-56-9.88-83,0-83,3.95-144.29,2-218.08,0-15.16,2-31,2-42.17,0-7.91-2-15.81-3.95-27,0-5.93,2-13.84,2-19.77,2-21.08-2-48.1,2-56,7.91-11.2,67.87-13.17,77.09-1.31,7.91,11.2,2,34.26,2,48.09-2,15.16,0,34.93,0,56v27c0,9.23,0,23.06,2,27,3.95,5.93,23.71,5.93,32.94,5.93,7.9,0,29,2,32.94-4s4-38.87,4-50.07V264.94c0-11.2-2-23.06,2-30.31,3.95-7.91,13.18-5.93,21.08-7.91C501.46,226.72,539.67,222.77,547.58,232.65Z" transform="translate(-41.67 -218.04)"/><path class="cls-1" d="M716,218.81c31-2,61.93,7.91,81,17.13,5.93,4,19.11,17.8,23.06,23.72,9.88,13.18,15.81,23.06,19.11,40.2,2,3.95,3.95,5.93,3.95,7.9v7.91c2,9.22,5.93,19.11,7.91,25v21.08c0,5.93,2,11.2,2,17.13,4,34.92,2,75.77,0,114,0,25,0,50.07-3.95,73.13-4,23.72-9.88,48.76-15.15,61.94-2,3.95-7.91,13.83-11.86,17.78l-2,2c-5.93,9.23-17.13,17.13-29,25-5.93,3.29-7.91,5.27-13.18,7.25-5.93,2-11.86,2-21.74,4-5.27,0-11.2,3.95-17.13,3.95-13.18,2-31,2-40.19,2-11.86-2-25.7-5.93-36.9-11.86-2,0-4-3.29-4-3.29a107,107,0,0,1-17.14-7.91c-7.9-5.93-17.78-17.79-23.71-25-13.18-23.06-23.07-58-25-90.92-2-25-2-58-2-79.07-2-15.81,0-32.94,2-48.1,0-21.74,0-44.8,2-63.91,2-9.88,4-19.1,5.94-27,0-11.86,0-21.08,2-31,5.93-17.13,19.11-46.12,33-58,3.95-2,9.22-5.93,15.15-9.22,15.81-7.91,38.87-13.84,63.91-15.82ZM677.11,348c-5.93,48.76-4,100.81-2,150.88,2,38.88,4,98.18,21.74,112,0,2,5.27,4,9.22,5.93,15.82,5.28,29,2,40.86-5.93,3.95-4,9.22-9.88,11.19-13.83,5.93-9.23,9.89-36.24,11.86-54,0-15.15,0-34.26,2-56,0-42.17-2-85-5.93-121.24-2-25-3.95-48.09-11.86-59.95C748.93,297.88,741,292,733.12,290c-9.23-3.29-13.18,0-17.13,0h-2C689,293.93,681.07,319,677.11,348Z" transform="translate(-41.67 -218.04)"/><path class="cls-1" d="M975.89,226.44c9.23,9.23,7.91,234.41,7.91,263.4-2,63.25-2,108.05-2,175.26,0,11.86,2,17.79,2,25.69,0,15.16-3.95,38.22-2,61.28,0,23.06,2,51.24-4,64.42-4,17.13-19.77,36.89-34.92,46.12-15.15,9.88-40.85,13.84-71.16,11.86-19.76-2-42.82-4-50.73-15.82-2-5.27-2-21.08-2-32.28,0-15.81,0-27,5.93-31,11.86-5.93,36.9,13.18,56,7.91,7.9-2,15.81-9.88,19.76-23.72,1.32-11.2,0-27.52,0-40.7,0-11.86,1.32-21.08,1.32-32.94V634.79c0-29-3.29-56-3.29-81.7,0-36.24,2-253.51,2-286.46,0-23.06-7.91-38.21,9.22-46.12C923.84,216.56,966,216.56,975.89,226.44Z" transform="translate(-41.67 -218.04)"/></svg>
