<?xml version="1.0" encoding="UTF-8" standalone="no"?>
<svg
   width="800px"
   height="800px"
   viewBox="0 0 24 24"
   fill="none"
   version="1.1"
   id="svg3"
   sodipodi:docname="search.svg"
   inkscape:version="1.3 (0e150ed, 2023-07-21)"
   xmlns:inkscape="http://www.inkscape.org/namespaces/inkscape"
   xmlns:sodipodi="http://sodipodi.sourceforge.net/DTD/sodipodi-0.dtd"
   xmlns="http://www.w3.org/2000/svg"
   xmlns:svg="http://www.w3.org/2000/svg">
  <defs
     id="defs3" />
  <sodipodi:namedview
     id="namedview3"
     pagecolor="#ffffff"
     bordercolor="#000000"
     borderopacity="0.25"
     inkscape:showpageshadow="2"
     inkscape:pageopacity="0.0"
     inkscape:pagecheckerboard="0"
     inkscape:deskcolor="#d1d1d1"
     inkscape:zoom="0.295"
     inkscape:cx="398.30508"
     inkscape:cy="400"
     inkscape:window-width="1312"
     inkscape:window-height="449"
     inkscape:window-x="0"
     inkscape:window-y="0"
     inkscape:window-maximized="0"
     inkscape:current-layer="svg3" />
  <path
     d="m 18.682765,16.907843 c 1.380497,-1.679442 2.307667,-4.013099 2.307667,-6.330999 C 20.990432,5.1551476 16.473958,0.76 10.902674,0.76 5.3313555,0.76 0.81491525,5.1551476 0.81491525,10.576844 c 0,5.421663 4.51644025,9.816844 10.08775875,9.816844 2.381867,0 4.570922,-0.803307 6.296712,-2.14673 0.508475,-0.508475 4.616328,4.599619 4.616328,4.599619 1.036377,1.008544 2.113087,-0.02559 1.07671,-1.034139 z m -7.780091,1.925408 c -4.3394583,0 -8.6708434,-4.033489 -8.6708434,-8.256407 0,-4.2229187 4.3313851,-8.2564401 8.6708434,-8.2564401 4.339458,0 8.670809,4.2369112 8.670809,8.4598301 0,4.222918 -4.331351,8.053017 -8.670809,8.053017 z"
     fill="#1c274c"
     fill-rule="evenodd"
     clip-rule="evenodd"
     fill-opacity="1"
     stroke-width="1.10519"
     stroke-dasharray="none"
     id="path1"
     sodipodi:nodetypes="cssssccccsssss" />
  <path
     d="m 13.457351,9.1002647 0.05184,2.1532893"
     stroke="#1c274c"
     stroke-width="1.95702"
     stroke-linecap="round"
     id="path2" />
  <path
     d="M 8.551347,9.0409457 8.603191,11.194235"
     stroke="#1c274c"
     stroke-width="1.95701"
     stroke-linecap="round"
     id="path3" />
</svg>
