<svg
    xmlns="http://www.w3.org/2000/svg"
    version="1.1"
    viewBox="0 0 24 24"
    width="800"
    height="800"
    fill="none"
>
    <path
        d="m 20.503667,19.512812 c 1.498791,-1.721309 2.505409,-4.113142 2.505409,-6.488822 0,-5.556853 -4.903485,-10.0615654 -10.952165,-10.0615654 -6.0487172,0 -10.9521652,4.5047124 -10.9521652,10.0615654 0,5.556818 4.903448,10.061562 10.9521652,10.061562 2.585967,0 4.962599,-0.823331 6.836268,-2.200243 z m -8.446756,1.973405 c -4.7113005,0 -9.4138363,-4.134038 -9.4138363,-8.462227 0,-4.3281914 4.7025358,-8.4622628 9.4138363,-8.4622628 4.711301,0 9.4138,4.3425313 9.4138,8.6707228 0,4.328187 -4.702499,8.253767 -9.4138,8.253767 z"
        fill="currentColor"
        fill-rule="evenodd"
        clip-rule="evenodd"
        fill-opacity="1"
        stroke-width="1.16584"
        stroke-dasharray="none"
    />
    <path
        d="m 14.703831,11.557853 0.0553,2.175599"
        stroke="currentColor"
        stroke-width="2.03174"
        stroke-linecap="round"
    />
    <path
        d="m 9.470316,11.497919 0.055305,2.175598"
        stroke="currentColor"
        stroke-width="2.03172"
        stroke-linecap="round"
    />
    <path
        d="m 13.921987,2.0293778 c -1.700446,0.00578 -2.945437,0.011553 -3.53279,0.01733"
        stroke="currentColor"
        stroke-width="1.69465"
        stroke-linecap="round"
    />
    <path
        d="m 21.395697,5.8423397 -1.28226,1.167146"
        stroke="currentColor"
        stroke-width="2.03172"
        stroke-linecap="round"
    />
</svg>
