<?xml version="1.0" encoding="UTF-8" standalone="no"?>
<!-- Uploaded to: SVG Repo, www.svgrepo.com, Generator: SVG Repo Mixer Tools -->
<svg width="800px" height="800px" viewBox="0 0 32 32" version="1.1" xmlns="http://www.w3.org/2000/svg" xmlns:xlink="http://www.w3.org/1999/xlink" xmlns:sketch="http://www.bohemiancoding.com/sketch/ns">

    <title>collapse</title>
    <desc>Created with Sketch Beta.</desc>
    <defs>

</defs>
    <g id="Page-1" stroke="none" stroke-width="1" fill="none" fill-rule="evenodd" sketch:type="MSPage">
        <g id="Icon-Set" sketch:type="MSLayerGroup" transform="translate(-360.000000, -1191.000000)" fill="#000000">
            <path d="M387.887,1203.04 L381.326,1203.04 L392.014,1192.4 L390.614,1191.01 L379.938,1201.64 L379.969,1195.16 C379.969,1194.61 379.526,1194.17 378.979,1194.17 C378.433,1194.17 377.989,1194.61 377.989,1195.16 L377.989,1204.03 C377.989,1204.32 378.111,1204.56 378.302,1204.72 C378.481,1204.9 378.73,1205.01 379.008,1205.01 L387.887,1205.01 C388.434,1205.01 388.876,1204.57 388.876,1204.03 C388.876,1203.48 388.434,1203.04 387.887,1203.04 L387.887,1203.04 Z M372.992,1208.99 L364.113,1208.99 C363.566,1208.99 363.124,1209.43 363.124,1209.97 C363.124,1210.52 363.566,1210.96 364.113,1210.96 L370.674,1210.96 L359.986,1221.6 L361.386,1222.99 L372.063,1212.36 L372.031,1218.84 C372.031,1219.39 372.474,1219.83 373.021,1219.83 C373.567,1219.83 374.011,1219.39 374.011,1218.84 L374.011,1209.97 C374.011,1209.68 373.889,1209.44 373.697,1209.28 C373.519,1209.1 373.27,1208.99 372.992,1208.99 L372.992,1208.99 Z" id="collapse" sketch:type="MSShapeGroup">

</path>
        </g>
    </g>
</svg>
