<svg xmlns="http://www.w3.org/2000/svg" fill="#FFF" stroke-miterlimit="10" stroke-width="2" viewBox="0 0 96 96">
  <path stroke="#979593" d="M67.1716 7H27c-1.1046 0-2 .8954-2 2v78c0 1.1046.8954 2 2 2h58c1.1046 0 2-.8954 2-2V26.8284c0-.5304-.2107-1.0391-.5858-1.4142L68.5858 7.5858C68.2107 7.2107 67.702 7 67.1716 7z"/>
  <path fill="none" stroke="#979593" d="M67 7v18c0 1.1046.8954 2 2 2h18"/>
  <path fill="#C8C6C4" d="M79 61H48v-2h31c.5523 0 1 .4477 1 1s-.4477 1-1 1zm0-6H48v-2h31c.5523 0 1 .4477 1 1s-.4477 1-1 1zm0-6H48v-2h31c.5523 0 1 .4477 1 1s-.4477 1-1 1zm0-6H48v-2h31c.5523 0 1 .4477 1 1s-.4477 1-1 1zm0 24H48v-2h31c.5523 0 1 .4477 1 1s-.4477 1-1 1z"/>
  <path fill="#185ABD" d="M12 74h32c2.2091 0 4-1.7909 4-4V38c0-2.2091-1.7909-4-4-4H12c-2.2091 0-4 1.7909-4 4v32c0 2.2091 1.7909 4 4 4z"/>
  <path d="M21.6245 60.6455c.0661.522.109.9769.1296 1.3657h.0762c.0306-.3685.0889-.8129.1751-1.3349.0862-.5211.1703-.961.2517-1.319L25.7911 44h4.5702l3.6562 15.1272c.183.7468.3353 1.6973.457 2.8532h.0608c.0508-.7979.1777-1.7184.3809-2.7615L37.8413 44H42l-5.1183 22h-4.86l-3.4885-14.5744c-.1016-.4197-.2158-.9663-.3428-1.6417-.127-.6745-.2057-1.1656-.236-1.4724h-.0608c-.0407.358-.1195.8896-.2364 1.595-.1169.7062-.211 1.2273-.2819 1.565L24.1 66h-4.9357L14 44h4.2349l3.1843 15.3882c.0709.3165.1392.7362.2053 1.2573z"/>
</svg>
