<?xml version="1.0" encoding="utf-8"?><!-- Uploaded to: SVG Repo, www.svgrepo.com, Generator: SVG Repo Mixer Tools -->
<svg width="800px" height="800px" viewBox="0 0 20 20" xmlns="http://www.w3.org/2000/svg" fill="none">
  <path fill="#000000" fill-rule="evenodd" d="M15.198 3.52a1.612 1.612 0 012.223 2.336L6.346 16.421l-2.854.375 1.17-3.272L15.197 3.521zm3.725-1.322a3.612 3.612 0 00-5.102-.128L3.11 12.238a1 1 0 00-.253.388l-1.8 5.037a1 1 0 001.072 1.328l4.8-.63a1 1 0 00.56-.267L18.8 7.304a3.612 3.612 0 00.122-5.106zM12 17a1 1 0 100 2h6a1 1 0 100-2h-6z"/>
</svg>
