<?xml version="1.0" encoding="utf-8"?>
<!-- Uploaded to: SVG Repo, www.svgrepo.com, Generator: SVG Repo Mixer Tools -->
<svg fill="#000000" width="800px" height="800px" viewBox="-7.5 0 32 32" version="1.1" xmlns="http://www.w3.org/2000/svg">
<title>thumbs-down</title>
<path d="M5.92 25.24c-0.64 0-1.36-0.2-2.2-0.64-0.28-0.16-0.44-0.44-0.44-0.76v-14.96c0-0.36 0.24-0.72 0.6-0.8 0.2-0.040 4.8-1.32 8.16-1.32 1.36 0 2.36 0.2 3 0.6 0.88 0.56 1.44 1.52 1.6 2.92 0.36 2.44-0.52 5.92-1.44 6.96-0.8 0.88-2.36 1.040-3.84 1.2-0.72 0.080-1.72 0.2-2 0.36s-0.44 1.4-0.52 2.12c-0.24 1.84-0.6 4.32-2.92 4.32zM4.92 23.32c0.48 0.2 0.8 0.24 1 0.24 0.72 0 1-0.88 1.24-2.84 0.2-1.36 0.36-2.68 1.24-3.28 0.6-0.4 1.6-0.52 2.76-0.64 0.96-0.12 2.44-0.28 2.8-0.68 0.48-0.52 1.36-3.36 1.040-5.6-0.080-0.6-0.32-1.4-0.84-1.72-0.24-0.12-0.8-0.36-2.12-0.36-2.44 0-5.76 0.76-7.12 1.080 0 0 0 13.8 0 13.8zM0.84 18.64c-0.48 0-0.84-0.36-0.84-0.84v-8.92c0-0.48 0.36-0.84 0.84-0.84s0.84 0.36 0.84 0.84v8.96c0 0.44-0.36 0.8-0.84 0.8z"></path>
</svg>
