<?xml version="1.0" encoding="utf-8"?><!-- Uploaded to: SVG Repo, www.svgrepo.com, Generator: SVG Repo Mixer Tools -->
<svg width="800px" height="800px" viewBox="0 0 14 14" role="img" focusable="false" aria-hidden="true" xmlns="http://www.w3.org/2000/svg"><path fill="#3177bc" d="M1.4653988 6.3265778c.3526004-2.77544 2.2447314-5.29318 5.6382665-5.32658003 2.0488113.0391 3.7347257.96736003 4.7365897 2.73760003.503993.92394.66123 1.89408.694625 2.96384v1.25762H5.0042041c.034481 3.1057802 4.5696119 3.0000302 6.5232469 1.63081v2.5280402c-1.143795.68739-3.7375091 1.29964-5.7468025.51206-1.7115172-.64286-2.9304514-2.4323-2.9221025-4.1549502-.055659-2.23471 1.110399-3.71246 2.9221025-4.55291-.3840477.47672-.676258 1.00186-.8293205 1.9091l4.252355.00001s.2487127-2.54111-2.4064211-2.54111c-2.5046593.0885-4.310797 1.54482-5.3321414 3.0362z"/></svg>
